<svg width="32" height="32" viewBox="0 0 432 432" fill="none" xmlns="http://www.w3.org/2000/svg">
<rect width="432" height="432" rx="86.4" fill="#000000"/>
<rect x="237.073" y="326.634" width="105.366" height="42.1463" rx="21.0731" transform="rotate(90 237.073 326.634)" fill="#FFFFFF"/>
<rect x="105.366" y="237.073" width="105.366" height="42.1463" rx="21.0732" transform="rotate(180 105.366 237.073)" fill="#FFFFFF"/>
<rect x="279.329" y="122.869" width="105.366" height="42.1463" rx="21.0732" transform="rotate(-45 279.329 122.869)" fill="#FFFFFF"/>
<rect x="326.634" y="194.927" width="105.366" height="42.1463" rx="21.0732" fill="#FFFFFF"/>
<rect x="148.946" y="305.405" width="63.2195" height="31.6097" rx="15.8049" transform="rotate(135 148.946 305.405)" fill="#FFFFFF"/>
<path d="M137.77 137.769C129.54 129.54 116.034 129.46 109.22 138.896C94.2908 159.572 85.5921 184.276 84.4272 210.054C82.9432 242.895 93.7946 275.104 114.849 300.352C135.904 325.599 165.639 342.06 198.212 346.5C230.786 350.94 263.842 343.038 290.885 324.346C317.929 305.655 337.005 277.525 344.364 245.485C351.724 213.445 346.835 179.811 330.659 151.191C314.483 122.572 288.188 101.037 256.943 90.8176C232.417 82.7961 206.232 82.2017 181.614 88.8599C170.379 91.8984 165.68 104.561 170.47 115.169C175.259 125.776 187.756 130.215 199.187 128.031C213.963 125.207 229.329 126.129 243.841 130.876C265.088 137.825 282.968 152.469 293.968 171.93C304.968 191.391 308.292 214.262 303.288 236.05C298.283 257.837 285.312 276.965 266.922 289.675C248.532 302.386 226.054 307.759 203.904 304.74C181.755 301.721 161.534 290.527 147.217 273.359C132.9 256.191 125.521 234.289 126.531 211.957C127.22 196.704 131.788 182.003 139.652 169.18C145.736 159.258 146 145.999 137.77 137.769Z" fill="#FFFFFF"/>
<path d="M216 184.39C216.749 184.39 217.493 184.416 218.23 184.467C222.885 184.791 223.902 191.218 223.902 195.884C223.902 202.232 229.048 207.379 235.396 207.379C240.25 207.379 247.022 208.205 247.472 213.039C247.563 214.013 247.609 215.001 247.609 215.999C247.609 233.457 233.457 247.609 216 247.609C198.542 247.609 184.39 233.457 184.39 215.999C184.39 198.541 198.542 184.39 216 184.39Z" fill="#FFFFFF"/>
</svg>