<svg width="432" height="375" viewBox="0 0 432 375" fill="none" xmlns="http://www.w3.org/2000/svg">
<path d="M338.933 6.17216C347.162 -2.05737 360.505 -2.0574 368.734 6.17216C376.964 14.4017 376.964 27.7443 368.734 35.9739L324.031 80.677C321.971 82.7377 319.589 84.2822 317.048 85.3108C328.495 101.001 336.375 119.459 339.499 139.491C342.022 138.424 344.795 137.833 347.707 137.833H410.927C422.565 137.833 432 147.268 432 158.907C432 170.545 422.565 179.98 410.927 179.98H347.707C344.795 179.98 342.022 179.389 339.499 178.321C331.158 231.81 288.902 274.065 235.413 282.406C236.481 284.928 237.072 287.702 237.072 290.614V353.833C237.072 365.472 227.637 374.907 215.999 374.907C204.361 374.906 194.926 365.472 194.926 353.833V290.614C194.926 287.702 195.516 284.928 196.584 282.406C175.235 279.076 155.676 270.344 139.348 257.651C138.876 258.293 138.351 258.907 137.771 259.488L115.419 281.839C109.247 288.011 99.2396 288.011 93.0674 281.839C86.8953 275.667 86.8952 265.66 93.0674 259.488L115.419 237.136C116 236.555 116.614 236.029 117.256 235.558C104.563 219.23 95.8293 199.671 92.5 178.322C89.9776 179.389 87.2043 179.98 84.293 179.98H21.0732C9.43486 179.98 1.01746e-06 170.545 0 158.907C0.000214921 147.268 9.43499 137.833 21.0732 137.833H84.293C87.2042 137.833 89.9777 138.424 92.5 139.491C101.828 79.6764 153.568 33.9065 216 33.9065C243.513 33.9065 268.95 42.7953 289.596 57.8577C290.624 55.3167 292.169 52.9358 294.229 50.8753L338.933 6.17216Z" fill="#D9D9D9"/>
</svg>
