<svg width="432" height="375" viewBox="0 0 432 375" fill="none" xmlns="http://www.w3.org/2000/svg">
<path d="M338.933 6.26465C347.162 -1.96461 360.505 -1.96457 368.734 6.26465C376.964 14.4942 376.964 27.8378 368.734 36.0674L324.031 80.7695C323.63 81.1713 323.215 81.5525 322.79 81.915C325.624 85.8419 328.255 89.9376 330.659 94.1914C338.399 107.885 343.552 122.727 346.019 137.993C346.576 137.949 347.139 137.927 347.707 137.927H410.927C422.565 137.927 432 147.362 432 159C432 170.638 422.565 180.073 410.927 180.073H347.707C347.139 180.073 346.576 180.049 346.019 180.005C345.56 182.841 345.011 185.67 344.364 188.485C337.005 220.525 317.928 248.655 290.885 267.347C274.627 278.583 256.196 285.918 237.004 289.019C237.048 289.576 237.072 290.139 237.072 290.707V353.927C237.072 365.565 227.637 375 215.999 375C204.361 375 194.926 365.565 194.926 353.927V290.707C194.926 290.139 194.949 289.576 194.993 289.02C172.864 285.445 152.15 276.305 134.718 262.633L115.419 281.933C109.247 288.105 99.2396 288.105 93.0674 281.933C86.8953 275.76 86.8952 265.753 93.0674 259.581L112.368 240.28C98.5382 222.648 89.5144 201.884 85.9795 180.005C85.4231 180.049 84.8607 180.073 84.293 180.073H21.0732C9.4349 180.073 7.31911e-05 170.638 0 159C-1.01746e-06 147.362 9.43486 137.927 21.0732 137.927H84.293C84.8607 137.927 85.4231 137.949 85.9795 137.993C89.2552 117.716 97.2271 98.5053 109.221 81.8955C116.034 72.4604 129.54 72.5403 137.77 80.7695C145.999 88.9991 145.735 102.258 139.651 112.18C131.788 125.003 127.22 139.704 126.53 154.957C125.521 177.289 132.901 199.191 147.218 216.359C161.535 233.528 181.755 244.721 203.904 247.74C226.054 250.759 248.532 245.386 266.922 232.676C285.312 219.965 298.284 200.837 303.288 179.05C308.293 157.263 304.968 134.391 293.968 114.93C282.968 95.4688 265.088 80.8251 243.841 73.876C229.329 69.1296 213.963 68.2077 199.188 71.0312C187.756 73.2158 175.259 68.7759 170.47 58.1689C165.68 47.5618 170.38 34.8989 181.614 31.8604C206.232 25.2022 232.417 25.796 256.942 33.8174C269.976 38.0804 282.148 44.314 293.084 52.208C293.446 51.7833 293.828 51.3693 294.229 50.9678L338.933 6.26465ZM215.999 127.39C216.749 127.39 217.493 127.415 218.229 127.467C222.884 127.791 223.902 134.218 223.901 138.884C223.901 145.232 229.047 150.379 235.396 150.379C240.25 150.379 247.022 151.206 247.472 156.039C247.562 157.014 247.608 158.001 247.608 158.999C247.608 176.457 233.456 190.609 215.999 190.609C198.542 190.609 184.39 176.457 184.39 158.999C184.39 141.542 198.542 127.39 215.999 127.39Z" fill="#171717"/>
</svg>
